# File generated by IfcOpenShell 0.8.5-7bdc1b6
g 3zR0BOEcLADRKln4HYporH
s 1
v 5.60000015137755 3 -0.25
v 5.60000015137755 3.2 0
v 5.60000015137755 3 0
v 5.60000015137755 3.2 -0.25
v 7.00000015137755 3.2 -0.25
v 7.00000015137755 4.8 0
v 7.00000015137755 3.2 0
v 7.00000015137755 4.8 -0.25
v 5.60000015137755 4.8 -0.25
v 5.60000015137755 4.8 0
v 4.60000015137755 4.99999999999999 0
v 4.60000015137755 4.8 -0.25
v 4.60000015137755 4.8 0
v 4.60000015137755 4.99999999999999 -0.25
v 4.60000015137755 3.2 0
v 4.60000015137755 3 0
v 5.60000015137755 4.99999999999999 0
v 7.70000015137755 7.6 0
v 7.70000015137755 8.3 0
v 8.40000015137755 4.99999999999999 0
v 8.40000015137755 7.6 0
v 3.20000015137755 8.8 0
v 8.40000015137755 8.8 0
v 3.20000015137755 4.99999999999999 0
v 8.40000015137755 8.3 0
v 3.20000015137755 4.8 0
v 3.20000015137755 3.2 0
v 3.20000015137755 8.8 -0.25
v 7.70000015137755 8.3 -0.25
v 3.20000015137755 4.99999999999999 -0.25
v 8.40000015137755 8.8 -0.25
v 5.60000015137755 4.99999999999999 -0.25
v 8.40000015137755 8.3 -0.25
v 7.70000015137755 7.6 -0.25
v 8.40000015137755 4.99999999999999 -0.25
v 8.40000015137755 7.6 -0.25
v 3.20000015137755 3.2 -0.25
v 3.20000015137755 4.8 -0.25
v 4.60000015137755 3.2 -0.25
v 4.60000015137755 3 -0.25
usemtl IfcSurfaceStyleRendering-77
f 3 1 2
f 4 2 1
f 7 5 6
f 8 6 5
f 9 6 8
f 6 9 10
f 12 13 11
f 14 12 11
f 3 15 16
f 15 3 13
f 3 10 13
f 2 6 10
f 2 7 6
f 19 17 18
f 17 20 18
f 21 18 20
f 19 23 22
f 19 22 24
f 11 19 24
f 11 13 19
f 13 17 19
f 17 13 10
f 25 23 19
f 26 27 15
f 13 26 15
f 28 29 30
f 29 28 31
f 30 29 14
f 12 14 29
f 29 32 12
f 9 12 32
f 29 31 33
f 34 35 32
f 29 34 32
f 35 34 36
f 4 9 8
f 5 4 8
f 38 12 37
f 39 37 12
f 12 1 40
f 1 12 9
f 38 26 12
f 26 13 12
f 26 37 27
f 26 38 37
f 39 15 37
f 27 37 15
f 4 5 7
f 2 4 7
f 17 10 9
f 32 17 9
f 28 22 31
f 22 23 31
f 40 1 3
f 16 40 3
f 15 40 16
f 39 40 15
f 22 30 24
f 22 28 30
f 30 14 11
f 24 30 11
f 20 35 21
f 35 36 21
f 17 32 35
f 17 35 20
f 23 25 33
f 31 23 33
f 18 34 19
f 29 19 34
f 19 29 33
f 19 33 25
f 34 18 36
f 18 21 36
g 1AQAupaRP1txwK1AGiN61V
s 1
v 7.20000015137755 4.80000000000001 3.175736
v 7.20000015137759 3 -0.249999999999994
v 7.20000015137755 4.8 -0.25
v 7.20000015137759 3.00000000000001 3.17573600000001
v 7.00000015137759 3 3.37573600000001
v 7.00000015137755 4.79999999999999 -0.25
v 7.00000015137759 2.99999999999999 -0.249999999999994
v 7.00000015137755 4.8 3.375736
usemtl IfcSurfaceStyleRendering-176
f 41 42 43
f 41 44 42
f 47 45 46
f 48 46 45
f 46 48 41
f 43 46 41
f 46 43 42
f 47 46 42
f 45 44 41
f 45 41 48
f 45 47 42
f 44 45 42
g 3wdauVJT5Fx9drrREiDqA$
s 1
v 8.60000015137755 8.99999999999999 1.775736
v 8.60000015137754 4.79999999999999 -0.25
v 8.60000015137755 8.99999999999999 -0.25
v 8.60000015137754 4.79999999999999 1.775736
v 8.40000015137754 4.79999999999999 -0.25
v 8.40000015137754 4.79999999999999 1.975736
v 8.40000015137755 8.99999999999999 -0.25
v 8.40000015137755 8.99999999999999 1.975736
usemtl IfcSurfaceStyleRendering-176
f 50 51 49
f 49 52 50
f 52 54 53
f 50 52 53
f 55 53 54
f 56 55 54
f 55 51 50
f 53 55 50
f 51 55 56
f 49 51 56
f 54 49 56
f 54 52 49
g 0OfZwWc8j9QP5uX8xPTxDH
s 1
v 3.20000015137756 8.99999999999999 -0.25
v 3.20000015137755 3 3.375736
v 3.20000015137755 3 -0.25
v 3.20000015137756 8.99999999999999 3.375736
v 3.00000015137756 8.99999999999999 3.175736
v 3.00000015137756 8.99999999999999 -0.25
v 3.00000015137755 3 3.175736
v 3.00000015137755 3 -0.25
usemtl IfcSurfaceStyleRendering-176
f 57 58 59
f 58 57 60
f 61 60 57
f 62 61 57
f 64 63 62
f 63 61 62
f 59 64 62
f 57 59 62
f 63 58 61
f 60 61 58
f 59 58 63
f 59 63 64
g 0Q5LjisRjDwhFSOc_WQjlF
s 1
v 8.17400015137754 5 0
v 8.15000015137755 7.6 0
v 8.17400015137755 7.6 0
v 8.15000015137754 5 0
v 8.15000015137755 8.8 2.225736
v 8.17400015137755 8.3 2.201736
v 8.17400015137755 8.8 2.201736
v 8.15000015137755 8.3 2.225736
v 8.17400015137755 8.3 0
v 8.15000015137755 8.8 0
v 8.17400015137755 8.8 0
v 8.15000015137755 8.3 0
v 8.17400015137754 5 2.201736
v 8.15000015137754 5 2.225736
v 8.17400015137755 7.6 2.201736
v 8.15000015137755 7.6 2.225736
usemtl IfcSurfaceStyleRendering-246
f 67 65 66
f 68 66 65
f 70 71 69
f 69 72 70
f 75 73 74
f 76 74 73
f 76 72 74
f 74 72 69
f 70 72 76
f 73 70 76
f 78 68 77
f 77 68 65
f 78 79 80
f 78 77 79
f 66 68 78
f 78 80 66
f 71 74 69
f 75 74 71
f 71 73 75
f 70 73 71
f 79 66 80
f 67 66 79
f 67 79 65
f 79 77 65
g 0ZTBBPo6f6bxqV2K7Oelrq
s 1
v 2.69999983296414 2.69999999999996 3.2999997502986
v 5.10000015137756 9.3 5.70000006871193
v 2.69999983296409 9.29999999999996 3.29999975029856
v 5.10000015137761 2.69999999999999 5.70000006871197
v 5.1000001513776 2.69999999999999 5.27573600000004
v 2.69999983296408 9.29999999999996 2.87573568158663
v 5.10000015137755 9.3 5.275736
v 2.69999983296413 2.69999999999996 2.87573568158668
usemtl IfcSurfaceStyleRendering-279
f 81 82 83
f 81 84 82
f 87 85 86
f 88 86 85
f 85 81 88
f 85 84 81
f 87 82 85
f 84 85 82
f 87 86 83
f 83 82 87
f 83 86 88
f 83 88 81
g 12UVOn4wvAJPMUExKdZLb8
s 1
v 7.50000046979099 2.69999999999997 3.29999975029854
v 5.10000015137755 2.69999999999999 5.27573600000001
v 7.50000046979099 2.69999999999996 2.87573568158661
v 5.10000015137755 2.7 5.70000006871193
v 5.10000015137753 9.3 5.70000006871182
v 5.10000015137753 9.3 5.27573599999989
v 8.90000047875546 4.49999999999995 1.89999974133406
v 8.40000032403097 7.59999999999996 2.39999989605848
v 7.69999996599534 7.59999999999997 3.10000025409409
v 8.90000047875545 9.29999999999995 1.89999974133398
v 8.40000032403097 8.29999999999995 2.39999989605847
v 7.50000046979098 4.49999999999997 3.29999975029851
v 7.69999996599534 8.29999999999997 3.10000025409408
v 7.50000046979099 4.49999999999996 2.87573568158658
v 8.90000047875546 4.49999999999994 1.47573567262213
v 7.69999996599535 7.59999999999996 2.67573618538217
v 7.69999996599534 8.29999999999996 2.67573618538215
v 8.40000032403097 8.29999999999995 1.97573582734654
v 8.40000032403098 7.59999999999995 1.97573582734655
v 8.90000047875545 9.29999999999994 1.47573567262205
usemtl IfcSurfaceStyleRendering-279
f 91 89 90
f 92 90 89
f 90 93 94
f 93 90 92
f 97 95 96
f 98 96 95
f 98 99 96
f 93 99 98
f 92 89 100
f 100 93 92
f 95 93 100
f 93 95 97
f 93 97 101
f 101 99 93
f 103 95 102
f 100 102 95
f 102 91 90
f 102 90 94
f 103 102 94
f 104 103 94
f 105 104 94
f 105 94 106
f 103 107 108
f 107 103 104
f 107 106 108
f 94 108 106
f 98 108 94
f 98 94 93
f 89 91 102
f 89 102 100
f 98 95 103
f 108 98 103
f 105 101 104
f 101 97 104
f 107 99 106
f 107 96 99
f 104 96 107
f 104 97 96
f 106 99 105
f 101 105 99
